<svg xmlns="http://www.w3.org/2000/svg" viewBox="0 2 256.83 46" width="268.0" height="48" fill="none" role="img" aria-label="Cicero">
<title>Cicero</title>
<g>
  <g fill="none" stroke="#F5F4F0" stroke-width="2.8" stroke-linecap="round" stroke-linejoin="round">
    <path d="M2 25 H6 L8 15.6 L10 34.4 L12 11 L14 39 L16 18 L18 32 L20 25 H24"/><path d="M24 25 H52"/><path d="M32 25 C36 25 36 13.3 40 13.3 H44 C48 13.3 48 25 52 25"/>
  </g>
  <circle cx="24" cy="25" r="2.6" fill="#F5F4F0"/>
  <circle cx="42" cy="13.3" r="2.6" fill="#F5F4F0"/>
  <circle cx="52" cy="25" r="3.6" fill="#CB9459"/>
</g>
<g fill="#F5F4F0">
  <path transform="translate(69.46 46.00) scale(0.05915 -0.05915)" d="M371.6004638671875 -16Q275.0003662109375 -16 200.80023193359375 28.29998779296875Q126.60009765625 72.5999755859375 84.79998779296875 155.39996337890625Q42.9998779296875 238.199951171875 42.9998779296875 354Q42.9998779296875 467.7999267578125 83.7999267578125 551.2999267578125Q124.5999755859375 634.7999267578125 199.0001220703125 680.3999633789062Q273.4002685546875 726 373.2005615234375 726Q509.0009765625 726 584.2012329101562 658.599853515625Q659.4014892578125 591.19970703125 681.801513671875 469.59912109375L545.998779296875 463.1990966796875Q532.9989013671875 533.19873046875 489.999267578125 572.9984741210938Q446.9996337890625 612.7982177734375 373.2005615234375 612.7982177734375Q312.801025390625 612.7982177734375 268.9014892578125 581.098388671875Q225.001953125 549.3985595703125 201.2022705078125 491.2989501953125Q177.402587890625 433.1993408203125 177.402587890625 354Q177.402587890625 274.0006103515625 201.602294921875 216.4010009765625Q225.802001953125 158.8013916015625 269.7015380859375 128.0015869140625Q313.60107421875 97.2017822265625 372.4005126953125 97.2017822265625Q451.399658203125 97.2017822265625 494.7991943359375 140.50146484375Q538.19873046875 183.8011474609375 549.5986328125 259.6007080078125L685.8013916015625 253.20068359375Q672.0013427734375 169.80029296875 632.001220703125 109.60015869140625Q592.0010986328125 49.4000244140625 526.700927734375 16.70001220703125Q461.4007568359375 -16 371.6004638671875 -16Z"/>
  <path transform="translate(112.05 46.00) scale(0.05915 -0.05915)" d="M70.3994140625 0V534.000244140625H198.402099609375V0Z"/>
  <path transform="translate(127.72 46.00) scale(0.05915 -0.05915)" d="M301.8009033203125 -12Q222.2005615234375 -12 163.30029296875 22.4000244140625Q104.4000244140625 56.800048828125 71.79986572265625 119.7000732421875Q39.19970703125 182.60009765625 39.19970703125 267.0001220703125Q39.19970703125 351.400146484375 71.79986572265625 413.8001708984375Q104.4000244140625 476.2001953125 163.30029296875 511.1002197265625Q222.2005615234375 546.000244140625 301.8009033203125 546.000244140625Q369.601318359375 546.000244140625 422.90167236328125 522.10009765625Q476.2020263671875 498.199951171875 509.60223388671875 453.39971923828125Q543.00244140625 408.5994873046875 551.202392578125 344.7991943359375L418.7996826171875 337.9991455078125Q410.999755859375 388.9990234375 379.60009765625 415.4989013671875Q348.200439453125 441.998779296875 301.8009033203125 441.998779296875Q240.0015869140625 441.998779296875 205.802001953125 395.69915771484375Q171.6024169921875 349.3995361328125 171.6024169921875 267.0001220703125Q171.6024169921875 184.20068359375 205.802001953125 137.90106201171875Q240.0015869140625 91.6014404296875 301.8009033203125 91.6014404296875Q348.6004638671875 91.6014404296875 380.20013427734375 119.00128173828125Q411.7998046875 146.401123046875 418.7996826171875 202.8009033203125L551.202392578125 196.8009033203125Q543.4024658203125 133.0006103515625 510.40228271484375 86.10040283203125Q477.402099609375 39.2001953125 424.10174560546875 13.60009765625Q370.8013916015625 -12 301.8009033203125 -12Z"/>
  <path transform="translate(161.80 46.00) scale(0.05915 -0.05915)" d="M300.600830078125 -12Q220.800537109375 -12 162.10028076171875 22.4000244140625Q103.4000244140625 56.800048828125 71.29986572265625 119.7000732421875Q39.19970703125 182.60009765625 39.19970703125 267.0001220703125Q39.19970703125 351.400146484375 71.29986572265625 413.8001708984375Q103.4000244140625 476.2001953125 161.50030517578125 511.1002197265625Q219.6005859375 546.000244140625 298.200927734375 546.000244140625Q374.4013671875 546.000244140625 431.60162353515625 511.900146484375Q488.8018798828125 477.800048828125 520.1019897460938 413.7999267578125Q551.402099609375 349.7998046875 551.402099609375 259.999755859375V231.3995361328125H172.00244140625Q175.8023681640625 160.8004150390625 210.302001953125 125.60089111328125Q244.8016357421875 90.4013671875 302.200927734375 90.4013671875Q345.0003662109375 90.4013671875 373.300048828125 109.50103759765625Q401.5997314453125 128.6007080078125 412.9996337890625 163.8004150390625L543.8021240234375 155.600341796875Q522.402099609375 78.199951171875 457.70172119140625 33.0999755859375Q393.0013427734375 -12 300.600830078125 -12ZM172.00244140625 317.4002685546875H418.599609375Q414.5997314453125 382.3995361328125 381.90008544921875 413.79925537109375Q349.200439453125 445.198974609375 298.200927734375 445.198974609375Q246.801513671875 445.198974609375 213.3018798828125 412.29925537109375Q179.80224609375 379.3995361328125 172.00244140625 317.4002685546875Z"/>
  <path transform="translate(196.52 46.00) scale(0.05915 -0.05915)" d="M70.3994140625 0V534.000244140625H190.002197265625L194.80224609375 385.599365234375L184.402099609375 388.1993408203125Q196.4022216796875 464.9998779296875 229.70220947265625 499.50006103515625Q263.002197265625 534.000244140625 320.602294921875 534.000244140625H370.2021484375V424.3984375H320.4022216796875Q279.2021484375 424.3984375 252.3021240234375 412.298583984375Q225.402099609375 400.19873046875 211.902099609375 374.69891357421875Q198.402099609375 349.1990966796875 198.402099609375 307.5992431640625V0Z"/>
  <path transform="translate(220.48 46.00) scale(0.05915 -0.05915)" d="M301.8009033203125 -12Q222.800537109375 -12 163.60028076171875 22.4000244140625Q104.4000244140625 56.800048828125 71.79986572265625 119.7000732421875Q39.19970703125 182.60009765625 39.19970703125 267.0001220703125Q39.19970703125 352.0001220703125 71.79986572265625 414.400146484375Q104.4000244140625 476.8001708984375 163.60028076171875 511.40020751953125Q222.800537109375 546.000244140625 301.8009033203125 546.000244140625Q380.80126953125 546.000244140625 439.7015380859375 511.40020751953125Q498.601806640625 476.8001708984375 531.2019653320312 414.400146484375Q563.8021240234375 352.0001220703125 563.8021240234375 267.0001220703125Q563.8021240234375 182.60009765625 531.2019653320312 119.7000732421875Q498.601806640625 56.800048828125 439.7015380859375 22.4000244140625Q380.80126953125 -12 301.8009033203125 -12ZM301.8009033203125 91.6014404296875Q363.6002197265625 91.6014404296875 397.49981689453125 137.90106201171875Q431.3994140625 184.20068359375 431.3994140625 267.0001220703125Q431.3994140625 349.3995361328125 397.49981689453125 395.899169921875Q363.6002197265625 442.3988037109375 301.8009033203125 442.3988037109375Q240.0015869140625 442.3988037109375 205.802001953125 395.899169921875Q171.6024169921875 349.3995361328125 171.6024169921875 267.0001220703125Q171.6024169921875 184.20068359375 205.802001953125 137.90106201171875Q240.0015869140625 91.6014404296875 301.8009033203125 91.6014404296875Z"/>
</g>
<path fill="#CB9459" transform="translate(112.05 46.00) scale(0.05915 -0.05915)" d="M67.9993896484375 605.3995361328125V718.6004638671875H200.8021240234375V605.3995361328125Z"/>
</svg>
